<mxfile host="app.diagrams.net" modified="2024-05-10T01:19:50.122Z" agent="Mozilla/5.0 (Windows NT 10.0; Win64; x64; rv:125.0) Gecko/20100101 Firefox/125.0" etag="t-0Qi_-Ee6nAXEYixg27" version="24.3.1" type="device">
  <diagram id="C5RBs43oDa-KdzZeNtuy" name="Page-1">
    <mxGraphModel dx="1050" dy="519" grid="1" gridSize="10" guides="1" tooltips="1" connect="1" arrows="1" fold="1" page="1" pageScale="1" pageWidth="827" pageHeight="1169" math="0" shadow="0">
      <root>
        <mxCell id="WIyWlLk6GJQsqaUBKTNV-0" />
        <mxCell id="WIyWlLk6GJQsqaUBKTNV-1" parent="WIyWlLk6GJQsqaUBKTNV-0" />
        <mxCell id="F2_esJWDb2tdCy-gtNe4-4" value="" style="edgeStyle=orthogonalEdgeStyle;rounded=0;orthogonalLoop=1;jettySize=auto;html=1;" parent="WIyWlLk6GJQsqaUBKTNV-1" source="qcJsJorpgH1Q3U-slzF--0" target="F2_esJWDb2tdCy-gtNe4-1" edge="1">
          <mxGeometry relative="1" as="geometry" />
        </mxCell>
        <mxCell id="qcJsJorpgH1Q3U-slzF--0" value="Chuyển sang ảnh xám" style="rounded=1;whiteSpace=wrap;html=1;fontSize=12;glass=0;strokeWidth=1;shadow=0;" parent="WIyWlLk6GJQsqaUBKTNV-1" vertex="1">
          <mxGeometry x="140" width="80" height="60" as="geometry" />
        </mxCell>
        <mxCell id="F2_esJWDb2tdCy-gtNe4-3" value="" style="edgeStyle=orthogonalEdgeStyle;rounded=0;orthogonalLoop=1;jettySize=auto;html=1;" parent="WIyWlLk6GJQsqaUBKTNV-1" source="F2_esJWDb2tdCy-gtNe4-0" target="qcJsJorpgH1Q3U-slzF--0" edge="1">
          <mxGeometry relative="1" as="geometry" />
        </mxCell>
        <mxCell id="F2_esJWDb2tdCy-gtNe4-0" value="Đọc ảnh &lt;br&gt;(màu hoặc xám)" style="rounded=1;whiteSpace=wrap;html=1;fontSize=12;glass=0;strokeWidth=1;shadow=0;" parent="WIyWlLk6GJQsqaUBKTNV-1" vertex="1">
          <mxGeometry width="100" height="60" as="geometry" />
        </mxCell>
        <mxCell id="F2_esJWDb2tdCy-gtNe4-5" value="" style="edgeStyle=orthogonalEdgeStyle;rounded=0;orthogonalLoop=1;jettySize=auto;html=1;" parent="WIyWlLk6GJQsqaUBKTNV-1" source="F2_esJWDb2tdCy-gtNe4-1" target="F2_esJWDb2tdCy-gtNe4-2" edge="1">
          <mxGeometry relative="1" as="geometry" />
        </mxCell>
        <mxCell id="F2_esJWDb2tdCy-gtNe4-1" value="Crop ảnh về kích thước không quá 256x256" style="rounded=1;whiteSpace=wrap;html=1;fontSize=12;glass=0;strokeWidth=1;shadow=0;" parent="WIyWlLk6GJQsqaUBKTNV-1" vertex="1">
          <mxGeometry x="260" width="120" height="60" as="geometry" />
        </mxCell>
        <mxCell id="F2_esJWDb2tdCy-gtNe4-2" value="Thêm nhiễu Gauss cho ảnh bằng hàm imnoise() của MATLAB" style="rounded=1;whiteSpace=wrap;html=1;fontSize=12;glass=0;strokeWidth=1;shadow=0;" parent="WIyWlLk6GJQsqaUBKTNV-1" vertex="1">
          <mxGeometry x="420" width="140" height="60" as="geometry" />
        </mxCell>
      </root>
    </mxGraphModel>
  </diagram>
</mxfile>
